<mxfile host="app.diagrams.net" agent="Mozilla/5.0 (Windows NT 10.0; Win64; x64; rv:130.0) Gecko/20100101 Firefox/130.0" version="24.7.12">
  <diagram name="Page-1" id="5987fedf-629e-85c4-6858-42fee31821dd">
    <mxGraphModel dx="2607" dy="1489" grid="0" gridSize="10" guides="1" tooltips="1" connect="1" arrows="1" fold="1" page="1" pageScale="1.5" pageWidth="1169" pageHeight="826" background="none" math="0" shadow="0">
      <root>
        <mxCell id="0" style=";html=1;" />
        <mxCell id="1" style=";html=1;" parent="0" />
        <mxCell id="2a5a01dd2e413fbf-1" value="" style="ellipse;whiteSpace=wrap;html=1;rounded=0;shadow=0;strokeWidth=1;fillColor=#dae8fc;fontSize=24;align=right;strokeColor=#6c8ebf;opacity=50;" parent="1" vertex="1">
          <mxGeometry x="312" y="359" width="500" height="230" as="geometry" />
        </mxCell>
        <mxCell id="2a5a01dd2e413fbf-2" value="" style="ellipse;whiteSpace=wrap;html=1;rounded=0;shadow=0;strokeWidth=1;fillColor=#d5e8d4;fontSize=24;align=right;strokeColor=#82b366;opacity=50;" parent="1" vertex="1">
          <mxGeometry x="212" y="439" width="330" height="490" as="geometry" />
        </mxCell>
        <mxCell id="2a5a01dd2e413fbf-3" value="" style="ellipse;whiteSpace=wrap;html=1;rounded=0;shadow=0;strokeWidth=1;fillColor=#ffe6cc;fontSize=24;align=right;strokeColor=#d79b00;opacity=50;" parent="1" vertex="1">
          <mxGeometry x="332" y="789" width="380" height="180" as="geometry" />
        </mxCell>
        <mxCell id="2a5a01dd2e413fbf-7" value="" style="ellipse;whiteSpace=wrap;html=1;rounded=0;shadow=0;strokeWidth=1;fillColor=#d5e8d4;fontSize=24;align=right;strokeColor=#82b366;opacity=50;" parent="1" vertex="1">
          <mxGeometry x="1215" y="479" width="395" height="391" as="geometry" />
        </mxCell>
        <mxCell id="2a5a01dd2e413fbf-8" value="" style="ellipse;whiteSpace=wrap;html=1;rounded=0;shadow=0;strokeWidth=1;fillColor=#ffe6cc;fontSize=24;align=right;strokeColor=#d79b00;opacity=50;" parent="1" vertex="1">
          <mxGeometry x="1070" y="409" width="397" height="370" as="geometry" />
        </mxCell>
        <mxCell id="2a5a01dd2e413fbf-9" value="" style="ellipse;whiteSpace=wrap;html=1;rounded=0;shadow=0;strokeWidth=1;fillColor=#fff2cc;fontSize=24;align=right;strokeColor=#d6b656;opacity=50;" parent="1" vertex="1">
          <mxGeometry x="1220" y="340" width="360" height="354" as="geometry" />
        </mxCell>
        <mxCell id="2a5a01dd2e413fbf-43" style="edgeStyle=none;curved=1;html=1;endArrow=none;endFill=0;strokeColor=#0066CC;strokeWidth=4;fontSize=24;dashed=1;dashPattern=1 1;" parent="1" source="2a5a01dd2e413fbf-11" target="2a5a01dd2e413fbf-13" edge="1">
          <mxGeometry relative="1" as="geometry">
            <Array as="points">
              <mxPoint x="442" y="519" />
            </Array>
          </mxGeometry>
        </mxCell>
        <mxCell id="2a5a01dd2e413fbf-11" value="" style="whiteSpace=wrap;html=1;rounded=0;shadow=0;strokeWidth=1;fillColor=#FF6666;fontSize=24;align=right;strokeColor=#b85450;" parent="1" vertex="1">
          <mxGeometry x="562" y="449" width="20" height="20" as="geometry" />
        </mxCell>
        <mxCell id="2a5a01dd2e413fbf-44" style="edgeStyle=none;curved=1;html=1;endArrow=none;endFill=0;strokeColor=#0066CC;strokeWidth=4;fontSize=24;dashed=1;dashPattern=1 1;" parent="1" source="2a5a01dd2e413fbf-13" target="2a5a01dd2e413fbf-15" edge="1">
          <mxGeometry relative="1" as="geometry">
            <Array as="points">
              <mxPoint x="502" y="739" />
            </Array>
          </mxGeometry>
        </mxCell>
        <mxCell id="2a5a01dd2e413fbf-13" value="" style="whiteSpace=wrap;html=1;rounded=0;shadow=0;strokeWidth=1;fillColor=#FF6666;fontSize=24;align=right;strokeColor=#b85450;" parent="1" vertex="1">
          <mxGeometry x="352" y="619" width="20" height="20" as="geometry" />
        </mxCell>
        <mxCell id="2a5a01dd2e413fbf-14" value="" style="whiteSpace=wrap;html=1;rounded=0;shadow=0;strokeWidth=1;fillColor=#FF6666;fontSize=24;align=right;strokeColor=#b85450;" parent="1" vertex="1">
          <mxGeometry x="402" y="849" width="20" height="20" as="geometry" />
        </mxCell>
        <mxCell id="2a5a01dd2e413fbf-35" style="edgeStyle=none;curved=1;html=1;endArrow=none;endFill=0;fontSize=24;strokeWidth=4;strokeColor=#00CC00;" parent="1" source="2a5a01dd2e413fbf-15" target="2a5a01dd2e413fbf-25" edge="1">
          <mxGeometry relative="1" as="geometry">
            <Array as="points">
              <mxPoint x="872" y="529" />
            </Array>
          </mxGeometry>
        </mxCell>
        <mxCell id="2a5a01dd2e413fbf-15" value="" style="whiteSpace=wrap;html=1;rounded=0;shadow=0;strokeWidth=1;fillColor=#FF6666;fontSize=24;align=right;strokeColor=#b85450;" parent="1" vertex="1">
          <mxGeometry x="542" y="889" width="20" height="20" as="geometry" />
        </mxCell>
        <mxCell id="2a5a01dd2e413fbf-36" style="edgeStyle=none;curved=1;html=1;endArrow=none;endFill=0;strokeColor=#FF0000;strokeWidth=4;fontSize=24;dashed=1;" parent="1" source="2a5a01dd2e413fbf-15" target="2a5a01dd2e413fbf-21" edge="1">
          <mxGeometry relative="1" as="geometry">
            <mxPoint x="1572" y="829" as="targetPoint" />
            <Array as="points">
              <mxPoint x="1092" y="909" />
            </Array>
            <mxPoint x="802" y="879" as="sourcePoint" />
          </mxGeometry>
        </mxCell>
        <mxCell id="2a5a01dd2e413fbf-39" style="edgeStyle=none;curved=1;html=1;endArrow=none;endFill=0;strokeColor=#FF0000;strokeWidth=4;fontSize=24;dashed=1;" parent="1" source="2a5a01dd2e413fbf-15" target="2a5a01dd2e413fbf-11" edge="1">
          <mxGeometry relative="1" as="geometry">
            <Array as="points">
              <mxPoint x="732" y="689" />
            </Array>
            <mxPoint x="1191.743589743589" y="1089" as="sourcePoint" />
          </mxGeometry>
        </mxCell>
        <mxCell id="2a5a01dd2e413fbf-37" style="edgeStyle=none;curved=1;html=1;endArrow=none;endFill=0;strokeColor=#FF0000;strokeWidth=4;fontSize=24;dashed=1;" parent="1" source="2a5a01dd2e413fbf-21" target="2a5a01dd2e413fbf-23" edge="1">
          <mxGeometry relative="1" as="geometry">
            <Array as="points">
              <mxPoint x="1422" y="649" />
            </Array>
          </mxGeometry>
        </mxCell>
        <mxCell id="2a5a01dd2e413fbf-21" value="" style="whiteSpace=wrap;html=1;rounded=0;shadow=0;strokeWidth=1;fillColor=#FF6666;fontSize=24;align=right;strokeColor=#b85450;" parent="1" vertex="1">
          <mxGeometry x="1397" y="734" width="20" height="20" as="geometry" />
        </mxCell>
        <mxCell id="2a5a01dd2e413fbf-22" value="" style="whiteSpace=wrap;html=1;rounded=0;shadow=0;strokeWidth=1;fillColor=#FF6666;fontSize=24;align=right;strokeColor=#b85450;" parent="1" vertex="1">
          <mxGeometry x="1510" y="681" width="20" height="20" as="geometry" />
        </mxCell>
        <mxCell id="2a5a01dd2e413fbf-41" style="edgeStyle=none;curved=1;html=1;endArrow=none;endFill=0;strokeColor=#0066CC;strokeWidth=4;fontSize=24;dashed=1;dashPattern=1 1;exitX=0;exitY=0;exitDx=0;exitDy=0;entryX=1;entryY=1;entryDx=0;entryDy=0;" parent="1" source="2a5a01dd2e413fbf-22" target="2a5a01dd2e413fbf-24" edge="1">
          <mxGeometry relative="1" as="geometry">
            <Array as="points">
              <mxPoint x="1530" y="590" />
            </Array>
          </mxGeometry>
        </mxCell>
        <mxCell id="2a5a01dd2e413fbf-23" value="" style="whiteSpace=wrap;html=1;rounded=0;shadow=0;strokeWidth=1;fillColor=#FF6666;fontSize=24;align=right;strokeColor=#b85450;" parent="1" vertex="1">
          <mxGeometry x="1390" y="630" width="20" height="20" as="geometry" />
        </mxCell>
        <mxCell id="2a5a01dd2e413fbf-24" value="" style="whiteSpace=wrap;html=1;rounded=0;shadow=0;strokeWidth=1;fillColor=#FF6666;fontSize=24;align=right;strokeColor=#b85450;" parent="1" vertex="1">
          <mxGeometry x="1417" y="574" width="20" height="20" as="geometry" />
        </mxCell>
        <mxCell id="2a5a01dd2e413fbf-25" value="" style="whiteSpace=wrap;html=1;rounded=0;shadow=0;strokeWidth=1;fillColor=#FF6666;fontSize=24;align=right;strokeColor=#b85450;" parent="1" vertex="1">
          <mxGeometry x="1310" y="530" width="20" height="20" as="geometry" />
        </mxCell>
        <mxCell id="2a5a01dd2e413fbf-26" value="" style="whiteSpace=wrap;html=1;rounded=0;shadow=0;strokeWidth=1;fillColor=#FF6666;fontSize=24;align=right;strokeColor=#b85450;" parent="1" vertex="1">
          <mxGeometry x="1500" y="449" width="20" height="20" as="geometry" />
        </mxCell>
        <mxCell id="2a5a01dd2e413fbf-27" value="" style="whiteSpace=wrap;html=1;rounded=0;shadow=0;strokeWidth=1;fillColor=#FF6666;fontSize=24;align=right;strokeColor=#b85450;" parent="1" vertex="1">
          <mxGeometry x="1150" y="584" width="20" height="20" as="geometry" />
        </mxCell>
        <mxCell id="2a5a01dd2e413fbf-29" value="" style="curved=1;endArrow=none;html=1;fontSize=24;fontColor=#000000;endFill=0;strokeWidth=4;strokeColor=#00CC00;" parent="1" source="2a5a01dd2e413fbf-11" target="2a5a01dd2e413fbf-15" edge="1">
          <mxGeometry width="50" height="50" relative="1" as="geometry">
            <mxPoint x="772" y="759" as="sourcePoint" />
            <mxPoint x="892" y="549" as="targetPoint" />
            <Array as="points">
              <mxPoint x="622" y="539" />
              <mxPoint x="622" y="799" />
            </Array>
          </mxGeometry>
        </mxCell>
        <mxCell id="2a5a01dd2e413fbf-31" value="" style="curved=1;endArrow=none;html=1;fontSize=24;endFill=0;strokeWidth=4;strokeColor=#00CC00;" parent="1" source="2a5a01dd2e413fbf-14" target="2a5a01dd2e413fbf-15" edge="1">
          <mxGeometry width="50" height="50" relative="1" as="geometry">
            <mxPoint x="392" y="1019" as="sourcePoint" />
            <mxPoint x="442" y="969" as="targetPoint" />
            <Array as="points">
              <mxPoint x="482" y="829" />
              <mxPoint x="532" y="855" />
            </Array>
          </mxGeometry>
        </mxCell>
        <mxCell id="D5c34l7Ejdsqdh00mkpq-1" value="&lt;font style=&quot;font-size: 30px;&quot;&gt;Main ESP &lt;/font&gt;" style="text;html=1;align=center;verticalAlign=middle;whiteSpace=wrap;rounded=0;" vertex="1" parent="1">
          <mxGeometry x="481" y="359" width="162" height="81" as="geometry" />
        </mxCell>
        <mxCell id="D5c34l7Ejdsqdh00mkpq-2" value="&lt;font style=&quot;font-size: 27px;&quot;&gt;Home Network&lt;/font&gt;" style="text;html=1;align=center;verticalAlign=middle;whiteSpace=wrap;rounded=0;" vertex="1" parent="1">
          <mxGeometry x="190" y="620" width="162" height="81" as="geometry" />
        </mxCell>
        <mxCell id="D5c34l7Ejdsqdh00mkpq-3" value="&lt;font style=&quot;font-size: 23px;&quot;&gt;Ardiuno Cloud&lt;/font&gt;" style="text;html=1;align=center;verticalAlign=middle;whiteSpace=wrap;rounded=0;" vertex="1" parent="1">
          <mxGeometry x="441" y="900" width="162" height="81" as="geometry" />
        </mxCell>
        <mxCell id="D5c34l7Ejdsqdh00mkpq-4" value="&lt;font style=&quot;font-size: 19px;&quot;&gt;Other ESP Nodes&lt;/font&gt;" style="text;html=1;align=center;verticalAlign=middle;whiteSpace=wrap;rounded=0;" vertex="1" parent="1">
          <mxGeometry x="1100" y="620" width="120" height="81" as="geometry" />
        </mxCell>
        <mxCell id="D5c34l7Ejdsqdh00mkpq-6" value="&lt;font style=&quot;font-size: 20px;&quot;&gt;Smart Appliances&lt;/font&gt;" style="text;html=1;align=center;verticalAlign=middle;whiteSpace=wrap;rounded=0;" vertex="1" parent="1">
          <mxGeometry x="1380" y="359" width="120" height="81" as="geometry" />
        </mxCell>
        <mxCell id="D5c34l7Ejdsqdh00mkpq-7" value="&lt;font style=&quot;font-size: 21px;&quot;&gt;Home Assistant&lt;/font&gt;" style="text;html=1;align=center;verticalAlign=middle;whiteSpace=wrap;rounded=0;" vertex="1" parent="1">
          <mxGeometry x="1437" y="703.5" width="120" height="81" as="geometry" />
        </mxCell>
        <mxCell id="D5c34l7Ejdsqdh00mkpq-8" value="&lt;font style=&quot;font-size: 21px;&quot;&gt;GOOGLE HOME&lt;/font&gt;" style="text;html=1;align=center;verticalAlign=middle;whiteSpace=wrap;rounded=0;" vertex="1" parent="1">
          <mxGeometry x="1330" y="493" width="120" height="81" as="geometry" />
        </mxCell>
        <mxCell id="D5c34l7Ejdsqdh00mkpq-12" style="edgeStyle=none;curved=1;html=1;endArrow=none;endFill=0;strokeColor=#0066CC;strokeWidth=4;fontSize=24;dashed=1;dashPattern=1 1;exitX=0.903;exitY=-0.058;exitDx=0;exitDy=0;entryX=0;entryY=0.5;entryDx=0;entryDy=0;exitPerimeter=0;" edge="1" parent="1" source="2a5a01dd2e413fbf-24" target="2a5a01dd2e413fbf-26">
          <mxGeometry relative="1" as="geometry">
            <Array as="points">
              <mxPoint x="1490" y="540" />
              <mxPoint x="1520" y="500" />
            </Array>
            <mxPoint x="1525" y="550" as="sourcePoint" />
            <mxPoint x="1452" y="463" as="targetPoint" />
          </mxGeometry>
        </mxCell>
        <mxCell id="D5c34l7Ejdsqdh00mkpq-14" style="edgeStyle=none;curved=1;html=1;endArrow=none;endFill=0;strokeColor=#0066CC;strokeWidth=4;fontSize=24;dashed=1;dashPattern=1 1;exitX=0;exitY=1;exitDx=0;exitDy=0;entryX=0.75;entryY=1;entryDx=0;entryDy=0;" edge="1" parent="1" source="2a5a01dd2e413fbf-24" target="2a5a01dd2e413fbf-27">
          <mxGeometry relative="1" as="geometry">
            <Array as="points">
              <mxPoint x="1352" y="629" />
            </Array>
            <mxPoint x="1332" y="720" as="sourcePoint" />
            <mxPoint x="1259" y="633" as="targetPoint" />
          </mxGeometry>
        </mxCell>
      </root>
    </mxGraphModel>
  </diagram>
</mxfile>
